<?xml version="1.0" encoding="utf-8"?>
<!-- Generator: Adobe Illustrator 16.0.0, SVG Export Plug-In . SVG Version: 6.00 Build 0)  -->
<!DOCTYPE svg PUBLIC "-//W3C//DTD SVG 1.0//EN" "http://www.w3.org/TR/2001/REC-SVG-20010904/DTD/svg10.dtd">
<svg version="1.0" id="Layer_1" xmlns="http://www.w3.org/2000/svg" xmlns:xlink="http://www.w3.org/1999/xlink" x="0px" y="0px"
	 width="488.975px" height="481.947px" viewBox="0 0 488.975 481.947" enable-background="new 0 0 488.975 481.947"
	 xml:space="preserve">
<g>
	<path d="M293.151,36.73c-10.206,0-19.593,3.483-27.059,9.312c0.107-0.002,0.212-0.016,0.319-0.016
		c11.063,0,20.032,8.968,20.032,20.032s-8.969,20.032-20.032,20.032c-7.232,0-13.552-3.847-17.072-9.593
		c-0.135,1.401-0.209,2.819-0.209,4.255c0,24.313,19.71,44.021,44.021,44.021c24.312,0,44.022-19.708,44.022-44.021
		S317.463,36.73,293.151,36.73z"/>
	<path d="M313.369,208.027c0,39.604-32.107,71.709-71.711,71.709c-39.601,0-71.708-32.105-71.708-71.709
		c0-39.604,32.107-71.71,71.708-71.71C281.261,136.317,313.369,168.422,313.369,208.027z"/>
	<path d="M143.804,124.247c0.688,1.293,1.08,2.766,1.08,4.333c0,5.106-4.14,9.246-9.246,9.246s-9.246-4.14-9.246-9.246
		c0-1.052,0.184-2.058,0.508-3c-10.056,4.142-17.137,14.035-17.137,25.585c0,15.279,12.387,27.665,27.664,27.665
		c15.278,0,27.665-12.386,27.665-27.665C165.092,138.082,156.007,127.128,143.804,124.247z"/>
	<path d="M154.99,172.533c0.112-0.092,0.228-0.181,0.338-0.274c6.47-4.12,20.3,5.458,17.278,16.303
		c-0.008,0.026-0.014,0.053-0.021,0.079c0.359,0.051,0.734,0.144,1.124,0.288c6.303,2.328,13.563-0.542,15.753-7.318
		c2.2-6.804-0.671-10.614-4.649-15.837c-0.208-0.273-0.373-0.545-0.513-0.816c-0.086,0.114-0.175,0.225-0.26,0.34
		c-7.206,8.681-20.848,0.366-19.938-6.748c0.027-0.097,0.046-0.198,0.071-0.296c-3.233,0.014-7.818,0.087-9.477,3.27
		c-1.479,2.837-2.429,6.392-0.5,9.203C154.618,171.338,154.869,171.945,154.99,172.533z"/>
	<path d="M287.63,124.25c-0.622-8.164-11.58-8.337-18.896-6.812c5.559,5.834-2.008,22.646-11.311,20.595
		c-0.226-0.051-0.455-0.091-0.685-0.134c-0.576,5.8-2.327,13.587,2.069,17.313c0.364,0.083,0.749,0.16,1.175,0.224
		c8.546,1.276,14.638-1.709,18.965-8.687c-0.167-0.102-0.33-0.208-0.497-0.308c-7.581-5.317,1.808-22.752,9.205-21.989
		C287.648,124.384,287.635,124.319,287.63,124.25z"/>
	<path d="M306.709,202.015c-0.008-0.093-0.022-0.183-0.03-0.275c-0.074,0.003-0.145,0.011-0.221,0.011
		c-0.162,0-0.304-0.029-0.457-0.042c-0.644,0.333-1.404,0.535-2.293,0.542c-4.637,0.039-9.708,0.323-13.977,2.317
		c-0.994,0.465-1.966,0.591-2.867,0.477c-3.662,2.2-7.164,5.159-3.49,6.877c2.744,1.283,6.271,1.06,9.232,1.347
		c3.419,0.332,6.979,0.775,10.405,0.252c0.72-0.472,1.609-0.771,2.696-0.771c0.384,0,0.744,0.038,1.082,0.104
		c0.001-0.009,0.002-0.018,0.003-0.027c29.535,4.604,50.856,9.95,50.856,9.95C347.051,214.959,328.705,207.591,306.709,202.015z"/>
	<path d="M193.452,238.625c-2.599,1.071-5.172,2.229-7.852,2.946c-0.054,0.014-0.104,0.021-0.157,0.034
		c0.046,0.086,0.088,0.176,0.134,0.262c-16.838,20.443-29.581,40.899-34.723,56.232c0,0,20.76-28.296,39.875-48.012
		c0.026,0.036,0.054,0.071,0.079,0.106c0.149-0.401,0.355-0.808,0.646-1.217c2.79-3.942,5.704-7.428,7.861-11.778l0.328-0.661
		c-0.404,0.089-0.801,0.205-1.199,0.314C196.841,237.563,195.157,238.15,193.452,238.625z"/>
	<path d="M192.314,231.385C192.313,231.385,192.313,231.385,192.314,231.385c-0.037,0.093-0.036,0.082-0.008-0.005
		c-0.116-0.072-0.22-0.165-0.33-0.246c-3.791-0.395-7.44-1.482-11.263-1.694c-0.174-0.01-0.341-0.029-0.506-0.053
		c-0.239,0.031-0.484,0.053-0.744,0.053c-1.441,0-2.559-0.502-3.355-1.278c0.053,0.268,0.091,0.542,0.146,0.809
		c-22.014,9.752-40.968,21.617-50.9,32.063c0,0,31.685-17.365,53.042-24.058c0.007,0.02,0.014,0.039,0.021,0.059
		c0.531-0.205,1.128-0.331,1.798-0.345c2.888-0.06,6.134-0.602,9.166-1.611c0.727-0.291,1.457-0.568,2.189-0.834
		c0.083-0.036,0.162-0.076,0.244-0.112C191.76,233.226,191.933,232.281,192.314,231.385z"/>
	<path d="M267.572,203.65c0.001,0,0.001,0,0.001,0c0.048-0.124,0.047-0.11,0.009,0.006c0.156,0.097,0.294,0.221,0.442,0.329
		c5.075,0.528,9.96,1.984,15.078,2.268c0.232,0.013,0.456,0.039,0.677,0.07c0.32-0.042,0.648-0.07,0.996-0.07
		c1.93,0,3.425,0.672,4.492,1.71c-0.07-0.359-0.122-0.725-0.195-1.083c29.47-13.055,54.844-28.939,68.141-42.922
		c0,0-42.416,23.247-71.007,32.206c-0.009-0.026-0.019-0.052-0.027-0.078c-0.711,0.274-1.51,0.443-2.407,0.461
		c-3.866,0.08-8.211,0.806-12.271,2.156c-0.973,0.39-1.95,0.761-2.931,1.117c-0.111,0.047-0.217,0.101-0.327,0.15
		C268.315,201.186,268.083,202.45,267.572,203.65z"/>
	<path d="M176.51,219.487c0.266-0.025,0.54-0.037,0.833-0.021c0.282,0.016,0.563,0.042,0.845,0.069
		c2.492-0.394,5.03-0.685,7.153-1.758c0.229-0.827,0.642-1.629,1.217-2.346c0.534-0.667,0.921-2.01,0.443-2.81
		c-0.624-1.044-1.211-1.063-1.727-1.106c-1.72-0.144-3.456-0.223-5.182-0.142c-0.772,0.036-1.57,0.025-2.327,0.2
		c-0.995,0.23-1.7,0.929-0.138-0.321c-1.834,1.467-4.214,1.951-6.172,0.717c-0.006,0.16-0.021,0.317-0.026,0.477h-0.006
		c-5.11,0-11.686,2.855-33.997-1.473c0,0,7.598,7.405,34.31,10.508c0.019,0.188,0.051,0.374,0.07,0.562
		c0.72-1.473,2.146-2.577,4.286-2.577C176.236,219.466,176.372,219.477,176.51,219.487z"/>
	<path d="M292.104,209.341c0.026-0.087,0.046-0.176,0.071-0.263c-4.678-0.106-9.237-1.64-13.728-2.812
		c-3.157-0.825-10.452-3.421-13.077-0.149c-0.747,0.932,1.106,4.676,3.057,7.725c4.284,0.322,8.727,3.863,11.968,6.434
		c1.963,0.381,3.905,0.896,5.714,1.988c0.23,0.139,0.436,0.29,0.63,0.446c34.085,14.01,87.525,51.98,87.525,51.98
		C359.274,254.713,328.456,230.311,292.104,209.341z"/>
	<path d="M299.612,170.897c-0.003,0.001-0.004,0.004-0.006,0.005c-0.005-0.004-0.011-0.008-0.017-0.011
		c-0.31,0.35-0.696,0.678-1.177,0.969c-6.727,4.079-15.823,12.227-16.597,20.914c0.615-0.26,1.42-0.683,1.621-0.79
		c1.822-0.971,3.536-2.108,5.217-3.305c4.846-3.448,9.605-6.958,14.384-10.505c0.709-0.526,1.437-0.827,2.151-0.953
		c0.436-0.437,0.986-0.815,1.67-1.103c14.531-21.55,13.95-31.84,13.95-31.84C309.434,163.954,302.964,167.042,299.612,170.897z"/>
	<path d="M201.405,260.953c0.002-0.002,0.001-0.005,0.003-0.007c0.006,0.001,0.013,0.001,0.02,0.001
		c0.084-0.459,0.246-0.94,0.506-1.438c3.649-6.97,7.222-18.647,3.393-26.482c-0.393,0.541-0.863,1.318-0.979,1.514
		c-1.058,1.773-1.937,3.633-2.757,5.526c-2.365,5.457-4.624,10.922-6.88,16.429c-0.335,0.818-0.802,1.452-1.349,1.929
		c-0.147,0.599-0.422,1.208-0.859,1.807c-1.295,25.959,4.522,34.467,4.522,34.467C196.589,271.974,200.53,265.985,201.405,260.953z"
		/>
	<path d="M235.88,279.736C268.38,286,255.907,314,253.38,327c19.974-13.5,45.148-26.5,75.5-25.5
		c-14.718-11.479-45.384-21.764-32.693-46.906C257.38,261.5,235.88,279.736,235.88,279.736z"/>
	<path d="M190.225,158.066C194.438,154.064,163.475,96,137.428,93s-9.36-20.797,3.953-7.5c11.774,11.761,25.265,21.433,37,38.523
		c12,17.477,15.556,29.927,21.263,25.887S190.225,158.066,190.225,158.066z"/>
	<path d="M229.993,137.642c-4.143,0.579-22.258-42.95-12.044-58.986c10.213-16.037-7.276-14.615-5.966-1.138
		c1.159,11.921,0.377,23.87,4.512,38.162c4.23,14.613,9.521,22.208,4.675,23.613S229.993,137.642,229.993,137.642z"/>
</g>
<g>
	<path d="M124.987,415.406c-6.009,15.191-21.994,21.088-32.311,21.088c-16.779,0-24.829-7.482-24.829-27.89
		c0-20.521,9.863-58.954,39.567-58.954c10.657,0,18.933,4.195,18.933,15.192c0,6.009-2.154,10.431-7.936,10.431
		c-1.814,0-4.308-0.454-6.462-2.948c2.721-1.36,5.215-6.122,5.215-10.43c0-3.628-1.814-6.916-6.916-6.916
		c-12.471,0-23.582,29.817-23.582,52.945c0,10.43,2.721,17.686,13.604,17.686c8.843,0,16.893-4.308,22.108-11.337L124.987,415.406z"
		/>
	<path d="M146.072,377.993l-1.474,7.029c3.968-3.401,8.276-7.029,13.718-7.029c5.102,0,7.823,4.195,7.823,8.503
		c0,3.968-2.607,8.276-8.163,8.276c-6.349,0-3.174-7.482-6.575-7.482c-3.401,0-5.442,1.7-8.276,4.308l-9.07,43.082h-16.326
		l12.018-56.687H146.072z"/>
	<path d="M218.082,377.993l-8.163,38.547c-0.34,1.474-0.453,2.607-0.453,3.628c0,3.174,1.474,4.875,4.648,4.875
		c4.422,0,7.483-4.988,9.184-10.657h4.761c-6.462,18.479-16.666,20.975-22.788,20.975c-6.349,0-10.43-3.628-11.111-10.431
		c-3.514,5.215-8.843,10.431-16.893,10.431c-7.709,0-15.078-4.763-15.078-18.253c0-15.305,9.41-39.681,29.137-39.681
		c6.462,0,9.183,2.494,9.183,5.782v0.793l1.247-6.009H218.082z M178.968,415.52c0,8.73,3.628,8.844,5.669,8.844
		c3.288,0,8.049-3.402,9.41-9.978l5.442-25.622c0-1.36-1.02-4.308-4.648-4.308C185.204,384.456,178.968,404.863,178.968,415.52z"/>
	<path d="M318.64,414.386c-5.329,6.123-10.884,10.204-15.759,13.265c-3.855,5.669-10.544,7.71-16.666,7.71
		c-13.491,0-15.759-8.163-15.759-15.079c0-6.689,4.195-10.771,8.163-10.771c3.855,0,5.896,1.474,5.896,4.762
		c0,2.721-2.494,5.102-5.442,5.102c-1.134,0-2.494-0.34-3.061-1.474c0,5.328,2.268,8.503,6.576,8.503
		c4.988,0,7.143-2.607,7.143-10.543c0-6.349-1.247-9.863-2.494-30.837c-5.329,7.936-11.337,13.038-17.913,15.305
		c-1.021,13.718-8.729,35.033-30.951,35.033c-10.43,0-15.872-5.442-15.872-14.512c0-1.927,0.227-4.082,0.793-6.462l12.131-56.8
		l16.779-2.267l-5.442,25.509c4.648-2.834,7.029-3.174,9.296-3.174c7.483,0,12.698,4.421,13.265,17.006
		c5.555-0.907,11.451-7.369,17.573-17.913l16.779-2.268c1.36,29.364,2.494,33.785,2.494,41.268c0,1.474-0.113,2.948-0.34,4.195
		c3.061-1.701,5.895-3.855,8.049-5.556H318.64z M257.418,391.711c-0.793-3.401-2.607-6.009-5.442-6.009
		c-1.587,0-5.442,0.567-6.689,2.041l-6.235,28.797c-0.227,0.907-0.34,1.814-0.34,2.607c0,3.288,1.928,5.216,6.009,5.216
		c6.462,0,11.904-12.358,13.038-23.469c-1.247-0.793-1.814-2.268-1.814-4.535C255.944,394.319,256.511,392.845,257.418,391.711z"/>
	<path d="M341.764,360.081l-3.854,17.913h6.802l-0.907,4.535h-6.803l-7.256,34.012c-0.34,1.474-0.453,2.607-0.453,3.628
		c0,3.174,1.474,4.195,4.648,4.195c4.421,0,8.503-4.309,10.204-9.978h4.762c-6.462,18.479-17.686,20.975-23.808,20.975
		c-6.803,0-12.131-4.082-12.131-13.605c0-2.154,0.34-4.648,0.907-7.37l6.802-31.857h-3.741l0.907-4.535h3.741l3.401-15.646
		L341.764,360.081z"/>
	<path d="M367.612,425.836c8.957,0,14.398-4.988,20.067-11.45h3.854c-6.462,10.431-16.099,20.975-31.177,20.975
		c-10.657,0-17.686-5.216-17.686-18.027c0-13.038,7.369-40.36,30.61-40.36c10.09,0,12.471,5.215,12.471,10.884
		c0,13.038-12.471,23.128-26.076,23.921c-0.114,1.587-0.227,3.174-0.227,4.535C359.449,424.022,362.17,425.836,367.612,425.836z
		 M374.188,382.981c-5.782,0-11.337,12.131-13.605,23.355c8.73-0.567,16.439-9.296,16.439-18.707
		C377.021,384.796,376.341,382.981,374.188,382.981z"/>
	<path d="M411.711,377.993l-1.474,7.029c3.968-3.401,8.276-7.029,13.718-7.029c5.102,0,7.823,4.195,7.823,8.503
		c0,3.968-2.607,8.276-8.163,8.276c-6.349,0-3.174-7.482-6.575-7.482c-3.401,0-5.442,1.7-8.276,4.308l-9.07,43.082h-16.326
		l12.018-56.687H411.711z"/>
</g>
</svg>
